# xmcd
#
# Track frame offsets: 
#        150
#        28257
#        51954
#        63864
#        86645
#        101110
#        120405
#        145848
#        160704
#        177003
#        215862
#
# Disc length: 3033 seconds
#
# Revision: 0
# Processed by: cddbd v1.5.2PL0 Copyright (c) Steve Scherf et al.
# Submitted via: ExactAudioCopy v1.0b3
#
DISCID=980bd70b
DTITLE=B.B. King - Live and Well
DYEAR=1968
DGENRE=Blues
TTITLE0=Don't Answer The Door
TTITLE1=Just A Little Love
TTITLE2=My Mood
TTITLE3=Sweet Little Angel
TTITLE4=Please Accept My Love
TTITLE5=I Want You So Bad
TTITLE6=Friends
TTITLE7=Get Off My Back Woman
TTITLE8=Let's Get Down To Business
TTITLE9=Why I Sing The Blues
TTITLE10=Get Myself Somebody - Bonus Track
EXTD=
EXTT0=
EXTT1=
EXTT2=
EXTT3=
EXTT4=
EXTT5=
EXTT6=
EXTT7=
EXTT8=
EXTT9=
EXTT10=
PLAYORDER=
